<svg width="150" height="27" fill="none" xmlns="http://www.w3.org/2000/svg"><path d="M51.1 26h-3.02V14.24h-3.5a2390.7 2390.7 0 00-.54 4.2 66.1 66.1 0 01-.62 3.84c-.17.83-.4 1.53-.7 2.12a3.06 3.06 0 01-1.18 1.34c-.5.3-1.14.46-1.94.46-.52 0-1-.07-1.44-.22V23.5l.5.14c.17.04.36.06.56.06.39 0 .68-.2.88-.6a9.6 9.6 0 00.64-2.3 176.27 176.27 0 001.34-9.08h9.02V26zm3.6-14.28h2.72v6.9a34.85 34.85 0 01-.06 2.34 91.95 91.95 0 01-.08 1.6h.06l6.6-10.84h3.62V26h-2.7v-6.86a38.09 38.09 0 01.06-2.44l.06-1.04.06-.6h-.08L58.34 26H54.7V11.72zm25.49 0v2.5h-6V26h-3.02V11.72h9.02zM89.7 26l-1.04-3.4h-5.2L82.43 26h-3.26l5.04-14.34h3.7L92.97 26h-3.26zm-1.76-5.94l-1.04-3.32a76.77 76.77 0 00-.58-1.92c-.1-.36-.2-.67-.26-.94-.06.27-.16.6-.28 1a62.46 62.46 0 01-.54 1.86l-1.02 3.32h3.72zM100.5 26V11.72h9.02v2.5h-6v2.98h1.2a8.3 8.3 0 013.3.56c.87.37 1.51.89 1.92 1.54.42.65.62 1.4.62 2.24 0 1.41-.47 2.51-1.42 3.3-.93.77-2.42 1.16-4.48 1.16h-4.16zm3.02-2.48h1.02c.92 0 1.64-.15 2.16-.44.54-.3.8-.8.8-1.54 0-.76-.28-1.26-.86-1.5a6.2 6.2 0 00-2.34-.36h-.78v3.84zm13.98-8.66c1.46 0 2.58.32 3.36.96.78.63 1.18 1.6 1.18 2.9V26h-2.08l-.58-1.48h-.08a4.65 4.65 0 01-1.48 1.28c-.52.27-1.24.4-2.14.4-.98 0-1.78-.28-2.42-.84-.64-.57-.96-1.45-.96-2.62 0-1.16.4-2.01 1.22-2.56.81-.56 2.03-.87 3.66-.92l1.9-.06v-.48c0-.57-.16-1-.46-1.26-.3-.27-.71-.4-1.24-.4-.54 0-1.06.08-1.56.24-.51.15-1.02.33-1.52.56l-.98-2.02c.58-.3 1.23-.55 1.94-.72a9.54 9.54 0 012.24-.26zm1.58 6.08l-1.16.04c-.96.03-1.63.2-2 .52-.38.32-.56.74-.56 1.26 0 .45.13.78.4.98.26.19.61.28 1.04.28.64 0 1.18-.19 1.62-.56.44-.39.66-.93.66-1.62v-.9zm8.99-5.86v4.2h4.16v-4.2h2.98V26h-2.98v-4.5h-4.16V26h-2.98V15.08h2.98zm17.42 0h3.28l-4.32 5.24 4.7 5.68h-3.38l-4.46-5.54V26h-2.98V15.08h2.98v5.3l4.18-5.3z" fill="#1F1E25"/><path d="M16.75 1h-2.92L1 22.34h3.8l1.74-3.05L16.75 1z" fill="#2C36F2"/><path d="M2.75 26h24.5L16.75 7.1 15 10.15l5.25 9.14L22 22.34H1L2.75 26z" fill="#2C36F2"/><path d="M22 22.34l-1.75-3.05H6.55l-1.76 3.05H22z" fill="#2C36F2"/><path d="M27.25 26L29 22.34 16.75 1 6.55 19.3h3.2L15 10.14l1.75-3.05L27.25 26z" fill="#2C36F2"/><path d="M15 10.15l-5.25 9.14h10.5L15 10.15z" fill="#2C36F2"/><path d="M27.25 26H2.75L1 22.34M27.25 26L29 22.34 16.75 1m10.5 25L16.75 7.1 15 10.15M16.75 1h-2.92L1 22.34M16.75 1L6.55 19.3M1 22.33h3.8M15 10.14L9.75 19.3M15 10.15l5.25 9.14m-10.5 0h10.5m-10.5 0h-3.2m13.7 0L22 22.34H4.8m1.74-3.05L4.8 22.34" stroke="#F6F7FF"/></svg>